<?xml version="1.0" encoding="UTF-8" standalone="no" ?>
<!DOCTYPE svg PUBLIC "-//W3C//DTD SVG 1.1//EN" "http://www.w3.org/Graphics/SVG/1.1/DTD/svg11.dtd">
<svg xmlns="http://www.w3.org/2000/svg" xmlns:xlink="http://www.w3.org/1999/xlink" version="1.1" width="1080" height="1080" viewBox="0 0 1080 1080" xml:space="preserve">
<desc>Created with Fabric.js 5.2.4</desc>
<defs>
</defs>
<g transform="matrix(1 0 0 1 540 540)" id="adf16acf-4b1b-448e-ac71-258d83030dfb"  >
<rect style="stroke: none; stroke-width: 1; stroke-dasharray: none; stroke-linecap: butt; stroke-dashoffset: 0; stroke-linejoin: miter; stroke-miterlimit: 4; fill: rgb(255,255,255); fill-rule: nonzero; opacity: 1; visibility: hidden;" vector-effect="non-scaling-stroke"  x="-540" y="-540" rx="0" ry="0" width="1080" height="1080" />
</g>
<g transform="matrix(1 0 0 1 540 540)" id="8636aaaa-2c53-4217-a280-05a2446876b5"  >
</g>
<g transform="matrix(1 0 0 1 540 540)"  >
<g style="" vector-effect="non-scaling-stroke"   >
		<g transform="matrix(0.13 0 0 -0.13 0 -15.07)"  >
<path style="stroke: none; stroke-width: 1; stroke-dasharray: none; stroke-linecap: butt; stroke-dashoffset: 0; stroke-linejoin: miter; stroke-miterlimit: 4; fill: rgb(79,60,193); fill-rule: nonzero; opacity: 1;" vector-effect="non-scaling-stroke"  transform=" translate(-2605.96, -2398)" d="M 3105 3683 C 3076 3580 3036 3469 3004 3401 C 2986 3365 2973 3334 2975 3332 C 2977 3330 3146 3325 3352 3321 L 3725 3313 L 3450 3310 C 3271 3308 3194 3305 3230 3300 C 3260 3295 3388 3292 3514 3291 C 3743 3290 3744 3290 3780 3265 C 3829 3231 4000 3018 4000 2991 C 4000 2971 3938 2868 3930 2877 C 3927 2881 3889 2926 3848 2975 C 3806 3025 3746 3090 3714 3120 C 3682 3150 3667 3162 3681 3145 C 3696 3129 3755 3055 3813 2982 L 3919 2849 L 3903 2814 C 3894 2795 3884 2780 3881 2781 C 3878 2781 3808 2855 3725 2946 C 3643 3036 3553 3133 3525 3163 L 3475 3215 L 3240 3210 C 3111 3207 3010 3203 3017 3202 C 3024 3201 3027 3194 3024 3186 C 3020 3175 3055 3172 3223 3168 L 3427 3164 L 3487 3099 C 3627 2949 3780 2774 3780 2764 C 3780 2754 3696 2674 3526 2521 C 3474 2474 3466 2470 3457 2485 C 3451 2497 3452 2506 3461 2515 C 3633 2672 3730 2763 3730 2769 C 3730 2778 3506 3016 3466 3049 L 3437 3074 L 3445 2944 C 3449 2862 3456 2814 3464 2811 C 3478 2806 3610 2679 3610 2670 C 3610 2666 3574 2630 3530 2590 L 3450 2518 L 3385 2588 C 3244 2740 3109 2777 2605 2800 C 2239 2817 2115 2834 2069 2876 C 2029 2912 2057 2942 2162 2975 C 2269 3009 2411 3024 2564 3017 C 2810 3006 2989 2940 3125 2810 L 3175 2762 L 3300 2758 L 3425 2755 L 3428 2798 L 3431 2840 L 3345 2840 L 3258 2840 L 3192 2901 C 3109 2976 2981 3041 2845 3077 C 2752 3102 2730 3104 2525 3104 C 2291 3105 2232 3097 2105 3049 C 1984 3004 1934 2913 1997 2854 C 2049 2806 2165 2788 2540 2770 L 2725 2761 L 2495 2766 C 2170 2771 2058 2788 2000 2837 C 1878 2939 2007 3067 2284 3117 C 2409 3140 2708 3139 2845 3116 C 3027 3085 3161 3027 3269 2933 C 3296 2909 3328 2890 3339 2890 C 3359 2890 3360 2895 3360 3020 L 3360 3150 L 3234 3150 C 3165 3150 3111 3146 3114 3142 C 3117 3137 3157 3116 3204 3094 C 3290 3055 3290 3055 3290 3018 L 3290 2980 L 3216 3029 C 3128 3086 3036 3122 2897 3152 C 2808 3171 2765 3174 2560 3174 C 2357 3174 2311 3171 2227 3153 C 2068 3118 1954 3055 1914 2978 C 1896 2943 1896 2867 1914 2832 C 1972 2722 2072 2700 2521 2700 C 2924 2700 3062 2684 3195 2621 C 3323 2560 3394 2462 3395 2343 C 3395 2308 3398 2280 3401 2280 C 3412 2280 3694 2546 3800 2657 C 3858 2717 3921 2788 3940 2815 C 3959 2842 4010 2902 4053 2949 C 4144 3047 4151 3021 3992 3174 C 3883 3279 3766 3375 3731 3388 C 3720 3392 3667 3392 3613 3389 C 3476 3379 3080 3366 3080 3371 C 3080 3373 3095 3416 3113 3465 C 3132 3515 3155 3585 3165 3623 C 3179 3676 3187 3689 3199 3685 C 3230 3676 3545 3593 3619 3575 C 3685 3559 3702 3550 3784 3481 C 3896 3388 4034 3256 4152 3128 L 4241 3031 L 4157 2918 C 3818 2462 3280 1810 2946 1451 C 2852 1350 2762 1251 2745 1233 L 2715 1199 L 2680 1232 C 2661 1251 2533 1367 2395 1490 C 2143 1717 1909 1941 1684 2170 C 1558 2298 1471 2400 1180 2761 C 1089 2873 996 2987 972 3013 C 948 3040 930 3066 932 3070 C 941 3094 1173 3349 1244 3413 C 1430 3580 1425 3577 1556 3609 C 1621 3625 1742 3653 1823 3670 C 1965 3700 2030 3718 2002 3719 C 1989 3720 1800 3678 1542 3617 C 1381 3579 1371 3573 1216 3429 C 1137 3355 892 3086 883 3064 C 876 3045 1320 2476 1544 2215 C 1707 2026 2075 1654 2419 1331 C 2575 1185 2708 1061 2716 1057 C 2730 1049 2765 1084 2996 1335 C 3335 1704 3714 2173 4120 2725 C 4161 2780 4224 2866 4261 2917 L 4329 3009 L 4162 3181 C 4015 3332 3783 3547 3725 3585 C 3707 3597 3159 3740 3132 3740 C 3126 3740 3113 3714 3105 3683 z M 4011 3078 L 4072 3010 L 4046 2970 C 4011 2916 4003 2919 4035 2974 C 4049 2998 4057 3021 4052 3024 C 4046 3027 4014 3062 3979 3102 C 3944 3142 3923 3169 3933 3161 C 3942 3153 3978 3116 4011 3078 z M 3603 2835 L 3664 2765 L 3581 2845 C 3536 2889 3494 2934 3488 2945 C 3473 2974 3529 2920 3603 2835 z M 2833 2753 C 2815 2751 2785 2751 2768 2753 C 2750 2755 2764 2757 2800 2757 C 2836 2757 2850 2755 2833 2753 z M 2938 2743 C 2928 2741 2912 2741 2903 2743 C 2893 2746 2901 2748 2920 2748 C 2939 2748 2947 2746 2938 2743 z" stroke-linecap="round" />
</g>
		<g transform="matrix(0.13 0 0 -0.13 -75.44 -191.97)"  >
<path style="stroke: none; stroke-width: 1; stroke-dasharray: none; stroke-linecap: butt; stroke-dashoffset: 0; stroke-linejoin: miter; stroke-miterlimit: 4; fill: rgb(79,60,193); fill-rule: nonzero; opacity: 1;" vector-effect="non-scaling-stroke"  transform=" translate(-2040.18, -3724.75)" d="M 2028 3723 C 2034 3721 2046 3721 2053 3723 C 2059 3726 2054 3728 2040 3728 C 2026 3728 2021 3726 2028 3723 z" stroke-linecap="round" />
</g>
		<g transform="matrix(0.13 0 0 -0.13 -60.81 -163.07)"  >
<path style="stroke: none; stroke-width: 1; stroke-dasharray: none; stroke-linecap: butt; stroke-dashoffset: 0; stroke-linejoin: miter; stroke-miterlimit: 4; fill: rgb(79,60,193); fill-rule: nonzero; opacity: 1;" vector-effect="non-scaling-stroke"  transform=" translate(-2149.88, -3508.03)" d="M 2071 3713 C 2069 3631 2151 3368 2191 3328 C 2233 3286 2240 3294 2212 3353 C 2198 3381 2160 3479 2129 3570 C 2097 3661 2071 3725 2071 3713 z" stroke-linecap="round" />
</g>
		<g transform="matrix(0.13 0 0 -0.13 -134.19 -124.44)"  >
<path style="stroke: none; stroke-width: 1; stroke-dasharray: none; stroke-linecap: butt; stroke-dashoffset: 0; stroke-linejoin: miter; stroke-miterlimit: 4; fill: rgb(79,60,193); fill-rule: nonzero; opacity: 1;" vector-effect="non-scaling-stroke"  transform=" translate(-1599.5, -3218.28)" d="M 2051 3685 C 2050 3647 2082 3503 2108 3425 C 2119 3392 2127 3363 2124 3361 C 2120 3357 1553 3378 1430 3386 L 1365 3391 L 1268 3303 C 1215 3255 1142 3182 1106 3142 L 1039 3069 L 1070 3027 C 1087 3003 1146 2931 1202 2866 L 1303 2747 L 1321 2817 C 1341 2897 1386 2992 1437 3064 C 1456 3090 1467 3109 1461 3106 C 1444 3095 1359 2972 1325 2908 L 1293 2849 L 1230 2932 C 1195 2978 1163 3020 1158 3026 C 1149 3038 1295 3225 1356 3281 L 1396 3317 L 1631 3323 C 1760 3327 1931 3330 2013 3330 C 2094 3330 2160 3331 2160 3333 C 2160 3335 2146 3376 2129 3426 C 2112 3475 2088 3560 2075 3615 C 2062 3670 2051 3702 2051 3685 z M 1185 3124 C 1133 3066 1111 3035 1118 3027 C 1201 2916 1220 2890 1217 2890 C 1212 2890 1109 3016 1096 3039 C 1090 3049 1111 3075 1171 3131 C 1217 3174 1256 3209 1258 3210 C 1260 3210 1227 3171 1185 3124 z M 1245 2860 C 1255 2849 1261 2840 1258 2840 C 1255 2840 1245 2849 1235 2860 C 1225 2871 1219 2880 1222 2880 C 1225 2880 1235 2871 1245 2860 z" stroke-linecap="round" />
</g>
		<g transform="matrix(0.13 0 0 -0.13 -118.07 -166.66)"  >
<path style="stroke: none; stroke-width: 1; stroke-dasharray: none; stroke-linecap: butt; stroke-dashoffset: 0; stroke-linejoin: miter; stroke-miterlimit: 4; fill: rgb(79,60,193); fill-rule: nonzero; opacity: 1;" vector-effect="non-scaling-stroke"  transform=" translate(-1720.46, -3534.93)" d="M 1950 3672 C 1942 3669 1834 3641 1710 3610 L 1485 3553 L 1453 3509 C 1402 3440 1411 3432 1481 3480 C 1505 3497 1561 3521 1605 3535 C 1695 3563 1949 3630 1966 3630 C 1972 3630 1982 3585 1989 3525 C 2001 3417 2007 3390 2019 3390 C 2022 3390 2020 3436 2013 3493 C 2007 3549 2001 3614 2001 3638 C 2000 3681 1990 3688 1950 3672 z" stroke-linecap="round" />
</g>
		<g transform="matrix(0.13 0 0 -0.13 48.44 -163.06)"  >
<path style="stroke: none; stroke-width: 1; stroke-dasharray: none; stroke-linecap: butt; stroke-dashoffset: 0; stroke-linejoin: miter; stroke-miterlimit: 4; fill: rgb(79,60,193); fill-rule: nonzero; opacity: 1;" vector-effect="non-scaling-stroke"  transform=" translate(-2969.24, -3507.95)" d="M 3019 3608 C 3006 3579 2967 3506 2933 3445 C 2890 3370 2880 3346 2900 3369 C 2931 3405 3056 3647 3048 3655 C 3045 3658 3033 3637 3019 3608 z" stroke-linecap="round" />
</g>
		<g transform="matrix(0.13 0 0 -0.13 119.08 -168.62)"  >
<path style="stroke: none; stroke-width: 1; stroke-dasharray: none; stroke-linecap: butt; stroke-dashoffset: 0; stroke-linejoin: miter; stroke-miterlimit: 4; fill: rgb(79,60,193); fill-rule: nonzero; opacity: 1;" vector-effect="non-scaling-stroke"  transform=" translate(-3499.05, -3549.63)" d="M 3330 3627 C 3333 3625 3385 3601 3445 3576 C 3506 3550 3581 3514 3613 3495 C 3673 3459 3685 3462 3648 3505 C 3632 3523 3587 3544 3500 3574 C 3354 3625 3323 3634 3330 3627 z" stroke-linecap="round" />
</g>
		<g transform="matrix(0.13 0 0 -0.13 -135.44 -134.5)"  >
<path style="stroke: none; stroke-width: 1; stroke-dasharray: none; stroke-linecap: butt; stroke-dashoffset: 0; stroke-linejoin: miter; stroke-miterlimit: 4; fill: rgb(79,60,193); fill-rule: nonzero; opacity: 1;" vector-effect="non-scaling-stroke"  transform=" translate(-1590.18, -3293.75)" d="M 1488 3293 C 1544 3291 1636 3291 1693 3293 C 1749 3294 1703 3296 1590 3296 C 1477 3296 1431 3294 1488 3293 z" stroke-linecap="round" />
</g>
		<g transform="matrix(0.13 0 0 -0.13 -3.79 -130.67)"  >
<path style="stroke: none; stroke-width: 1; stroke-dasharray: none; stroke-linecap: butt; stroke-dashoffset: 0; stroke-linejoin: miter; stroke-miterlimit: 4; fill: rgb(79,60,193); fill-rule: nonzero; opacity: 1;" vector-effect="non-scaling-stroke"  transform=" translate(-2577.51, -3265)" d="M 2116 3271 C 2113 3266 2117 3259 2126 3256 C 2147 3248 2934 3248 2994 3256 C 3019 3260 3040 3267 3040 3271 C 3040 3283 2123 3283 2116 3271 z" stroke-linecap="round" />
</g>
		<g transform="matrix(0.13 0 0 -0.13 -30.13 -26)"  >
<path style="stroke: none; stroke-width: 1; stroke-dasharray: none; stroke-linecap: butt; stroke-dashoffset: 0; stroke-linejoin: miter; stroke-miterlimit: 4; fill: rgb(79,60,193); fill-rule: nonzero; opacity: 1;" vector-effect="non-scaling-stroke"  transform=" translate(-2380.01, -2480)" d="M 1643 3143 C 1610 3105 1567 3053 1548 3027 C 1513 2981 1429 2825 1416 2785 C 1411 2768 1453 2723 1651 2531 C 1855 2333 1886 2299 1858 2305 C 1814 2315 1820 2310 1601 2508 C 1495 2603 1402 2684 1394 2687 C 1374 2694 1462 2538 1521 2461 C 1548 2425 1606 2357 1649 2309 L 1729 2223 L 1902 2145 C 1997 2102 2131 2039 2200 2005 C 2379 1915 2483 1881 2609 1869 C 2667 1864 2715 1858 2717 1857 C 2718 1855 2692 1831 2659 1802 L 2598 1750 L 2648 1750 C 2693 1750 2704 1755 2766 1805 C 2804 1835 2891 1889 2960 1925 C 3143 2019 3290 2145 3346 2252 C 3354 2268 3364 2303 3367 2330 C 3372 2371 3368 2389 3346 2434 C 3290 2548 3159 2605 2929 2617 L 2810 2623 L 2810 2579 C 2810 2503 2865 2505 2201 2555 C 1874 2580 1783 2606 1745 2686 C 1705 2771 1751 2916 1855 3029 C 1885 3061 1906 3091 1902 3095 C 1898 3100 1900 3100 1906 3097 C 1916 3091 2016 3138 2008 3145 C 2006 3146 1953 3144 1890 3140 C 1827 3136 1791 3132 1810 3131 L 1845 3129 L 1797 3088 C 1736 3036 1666 2938 1635 2861 C 1608 2795 1601 2696 1621 2657 C 1634 2631 1559 2701 1530 2741 L 1511 2767 L 1574 2872 C 1608 2930 1667 3015 1704 3060 C 1779 3150 1786 3181 1715 3104 C 1652 3037 1583 2939 1538 2856 C 1488 2762 1489 2779 1539 2878 C 1582 2963 1635 3037 1714 3118 L 1764 3170 L 1908 3170 C 2017 3170 2058 3174 2080 3185 C 2097 3194 2110 3203 2110 3205 C 2110 3208 2018 3210 1906 3210 L 1702 3210 L 1643 3143 z M 1839 3037 C 1775 2977 1729 2913 1701 2844 C 1690 2817 1681 2802 1681 2811 C 1679 2850 1746 2958 1812 3023 C 1849 3060 1883 3090 1887 3090 C 1892 3090 1870 3066 1839 3037 z M 1677 2768 C 1674 2760 1671 2763 1671 2774 C 1670 2785 1673 2791 1676 2787 C 1679 2784 1680 2775 1677 2768 z M 1667 2693 C 1664 2683 1662 2691 1662 2710 C 1662 2729 1664 2737 1667 2728 C 1669 2718 1669 2702 1667 2693 z M 1996 2339 C 2035 2302 2079 2266 2094 2261 C 2108 2255 2204 2241 2307 2230 C 2560 2202 2614 2186 2649 2128 C 2660 2110 2656 2112 2627 2137 C 2580 2178 2550 2186 2334 2210 C 2054 2241 2047 2243 1990 2292 C 1963 2316 1924 2355 1903 2379 L 1866 2423 L 1896 2416 C 1912 2412 1957 2377 1996 2339 z M 2870 2370 C 3039 2353 3110 2312 3110 2231 C 3110 2178 3076 2133 3006 2094 C 2890 2030 2651 1988 2598 2022 C 2585 2030 2528 2055 2470 2079 C 2412 2102 2345 2132 2320 2145 L 2275 2169 L 2310 2169 C 2378 2169 2501 2141 2545 2116 C 2569 2101 2596 2077 2606 2062 C 2619 2039 2628 2035 2651 2038 C 2678 2042 2680 2045 2680 2089 C 2680 2147 2654 2199 2613 2223 C 2590 2236 2516 2250 2356 2270 C 2124 2299 2097 2307 2066 2355 C 2057 2369 2050 2381 2050 2382 C 2050 2389 2785 2378 2870 2370 z" stroke-linecap="round" />
</g>
		<g transform="matrix(0.13 0 0 -0.13 -61.35 -6.69)"  >
<path style="stroke: none; stroke-width: 1; stroke-dasharray: none; stroke-linecap: butt; stroke-dashoffset: 0; stroke-linejoin: miter; stroke-miterlimit: 4; fill: rgb(79,60,193); fill-rule: nonzero; opacity: 1;" vector-effect="non-scaling-stroke"  transform=" translate(-2145.86, -2335.19)" d="M 2138 2333 C 2145 2330 2154 2331 2157 2334 C 2161 2337 2155 2340 2144 2339 C 2133 2339 2130 2336 2138 2333 z" stroke-linecap="round" />
</g>
		<g transform="matrix(0.13 0 0 -0.13 -51.91 -5.3)"  >
<path style="stroke: none; stroke-width: 1; stroke-dasharray: none; stroke-linecap: butt; stroke-dashoffset: 0; stroke-linejoin: miter; stroke-miterlimit: 4; fill: rgb(79,60,193); fill-rule: nonzero; opacity: 1;" vector-effect="non-scaling-stroke"  transform=" translate(-2216.61, -2324.75)" d="M 2203 2323 C 2212 2321 2226 2321 2233 2323 C 2239 2326 2232 2328 2215 2328 C 2199 2328 2193 2326 2203 2323 z" stroke-linecap="round" />
</g>
		<g transform="matrix(0.13 0 0 -0.13 -42.1 -3.97)"  >
<path style="stroke: none; stroke-width: 1; stroke-dasharray: none; stroke-linecap: butt; stroke-dashoffset: 0; stroke-linejoin: miter; stroke-miterlimit: 4; fill: rgb(79,60,193); fill-rule: nonzero; opacity: 1;" vector-effect="non-scaling-stroke"  transform=" translate(-2290.18, -2314.75)" d="M 2278 2313 C 2284 2311 2296 2311 2303 2313 C 2309 2316 2304 2318 2290 2318 C 2276 2318 2271 2316 2278 2313 z" stroke-linecap="round" />
</g>
		<g transform="matrix(0.13 0 0 -0.13 -33.25 -2.63)"  >
<path style="stroke: none; stroke-width: 1; stroke-dasharray: none; stroke-linecap: butt; stroke-dashoffset: 0; stroke-linejoin: miter; stroke-miterlimit: 4; fill: rgb(79,60,193); fill-rule: nonzero; opacity: 1;" vector-effect="non-scaling-stroke"  transform=" translate(-2356.61, -2304.75)" d="M 2343 2303 C 2352 2301 2366 2301 2373 2303 C 2379 2306 2372 2308 2355 2308 C 2339 2308 2333 2306 2343 2303 z" stroke-linecap="round" />
</g>
		<g transform="matrix(0.13 0 0 -0.13 -20.12 -0.64)"  >
<path style="stroke: none; stroke-width: 1; stroke-dasharray: none; stroke-linecap: butt; stroke-dashoffset: 0; stroke-linejoin: miter; stroke-miterlimit: 4; fill: rgb(79,60,193); fill-rule: nonzero; opacity: 1;" vector-effect="non-scaling-stroke"  transform=" translate(-2455.03, -2289.81)" d="M 2435 2289 C 2486 2279 2527 2279 2485 2290 C 2469 2294 2442 2298 2425 2298 C 2400 2298 2401 2296 2435 2289 z" stroke-linecap="round" />
</g>
		<g transform="matrix(0.13 0 0 -0.13 -9.35 1.31)"  >
<path style="stroke: none; stroke-width: 1; stroke-dasharray: none; stroke-linecap: butt; stroke-dashoffset: 0; stroke-linejoin: miter; stroke-miterlimit: 4; fill: rgb(79,60,193); fill-rule: nonzero; opacity: 1;" vector-effect="non-scaling-stroke"  transform=" translate(-2535.86, -2275.19)" d="M 2528 2273 C 2535 2270 2544 2271 2547 2274 C 2551 2277 2545 2280 2534 2279 C 2523 2279 2520 2276 2528 2273 z" stroke-linecap="round" />
</g>
		<g transform="matrix(0.13 0 0 -0.13 -4.01 2.64)"  >
<path style="stroke: none; stroke-width: 1; stroke-dasharray: none; stroke-linecap: butt; stroke-dashoffset: 0; stroke-linejoin: miter; stroke-miterlimit: 4; fill: rgb(79,60,193); fill-rule: nonzero; opacity: 1;" vector-effect="non-scaling-stroke"  transform=" translate(-2575.86, -2265.19)" d="M 2568 2263 C 2575 2260 2584 2261 2587 2264 C 2591 2267 2585 2270 2574 2269 C 2563 2269 2560 2266 2568 2263 z" stroke-linecap="round" />
</g>
		<g transform="matrix(0.13 0 0 -0.13 -149.46 -113.32)"  >
<path style="stroke: none; stroke-width: 1; stroke-dasharray: none; stroke-linecap: butt; stroke-dashoffset: 0; stroke-linejoin: miter; stroke-miterlimit: 4; fill: rgb(79,60,193); fill-rule: nonzero; opacity: 1;" vector-effect="non-scaling-stroke"  transform=" translate(-1485.02, -3134.9)" d="M 1479 3133 C 1466 3117 1467 3116 1483 3129 C 1492 3136 1500 3144 1500 3146 C 1500 3154 1492 3149 1479 3133 z" stroke-linecap="round" />
</g>
		<g transform="matrix(0.13 0 0 -0.13 -189.46 6)"  >
<path style="stroke: none; stroke-width: 1; stroke-dasharray: none; stroke-linecap: butt; stroke-dashoffset: 0; stroke-linejoin: miter; stroke-miterlimit: 4; fill: rgb(79,60,193); fill-rule: nonzero; opacity: 1;" vector-effect="non-scaling-stroke"  transform=" translate(-1185, -2240)" d="M 1180 2240 C 1186 2229 1193 2220 1196 2220 C 1198 2220 1196 2229 1190 2240 C 1184 2251 1177 2260 1174 2260 C 1172 2260 1174 2251 1180 2240 z" stroke-linecap="round" />
</g>
		<g transform="matrix(0.13 0 0 -0.13 -131.04 87.81)"  >
<path style="stroke: none; stroke-width: 1; stroke-dasharray: none; stroke-linecap: butt; stroke-dashoffset: 0; stroke-linejoin: miter; stroke-miterlimit: 4; fill: rgb(79,60,193); fill-rule: nonzero; opacity: 1;" vector-effect="non-scaling-stroke"  transform=" translate(-1623.17, -1626.42)" d="M 1260 2095 C 1432 1772 1567 1582 1876 1234 C 1956 1144 2026 1067 2033 1063 C 2039 1059 2011 1094 1970 1141 C 1806 1326 1569 1647 1352 1980 C 1278 2093 1216 2187 1213 2190 C 1209 2193 1231 2150 1260 2095 z" stroke-linecap="round" />
</g>
		<g transform="matrix(0.13 0 0 -0.13 187.75 59.25)"  >
<path style="stroke: none; stroke-width: 1; stroke-dasharray: none; stroke-linecap: butt; stroke-dashoffset: 0; stroke-linejoin: miter; stroke-miterlimit: 4; fill: rgb(79,60,193); fill-rule: nonzero; opacity: 1;" vector-effect="non-scaling-stroke"  transform=" translate(-4014.05, -1840.6)" d="M 4154 2063 C 4108 1981 3984 1785 3883 1635 C 3843 1575 3821 1539 3835 1555 C 3870 1596 4027 1828 4082 1920 C 4148 2031 4202 2130 4197 2130 C 4194 2130 4175 2100 4154 2063 z" stroke-linecap="round" />
</g>
		<g transform="matrix(0.13 0 0 -0.13 66.06 38.67)"  >
<path style="stroke: none; stroke-width: 1; stroke-dasharray: none; stroke-linecap: butt; stroke-dashoffset: 0; stroke-linejoin: miter; stroke-miterlimit: 4; fill: rgb(79,60,193); fill-rule: nonzero; opacity: 1;" vector-effect="non-scaling-stroke"  transform=" translate(-3101.42, -1995)" d="M 3219 2074 C 3184 2037 3110 1984 3022 1934 C 2980 1910 2949 1890 2953 1890 C 2970 1890 3068 1945 3125 1985 C 3180 2024 3261 2100 3249 2100 C 3246 2100 3233 2088 3219 2074 z" stroke-linecap="round" />
</g>
		<g transform="matrix(0.13 0 0 -0.13 13.26 82.34)"  >
<path style="stroke: none; stroke-width: 1; stroke-dasharray: none; stroke-linecap: butt; stroke-dashoffset: 0; stroke-linejoin: miter; stroke-miterlimit: 4; fill: rgb(79,60,193); fill-rule: nonzero; opacity: 1;" vector-effect="non-scaling-stroke"  transform=" translate(-2705.39, -1667.41)" d="M 3295 2014 C 3268 1990 3211 1947 3170 1919 C 3129 1891 3093 1866 3090 1863 C 3078 1850 3139 1885 3185 1918 C 3219 1942 3229 1946 3215 1930 C 3184 1895 3085 1831 3004 1794 C 2845 1720 2628 1697 2497 1741 C 2386 1778 2191 1898 2205 1920 C 2208 1926 2205 1928 2198 1925 C 2191 1923 2156 1947 2121 1981 C 2064 2035 2058 2038 2065 2013 C 2084 1934 2148 1865 2285 1778 C 2527 1622 2655 1606 2945 1694 C 2956 1698 2947 1691 2925 1681 C 2853 1645 2749 1627 2632 1631 C 2531 1635 2520 1637 2440 1676 C 2393 1699 2311 1747 2257 1783 C 2203 1819 2160 1845 2162 1840 C 2164 1835 2246 1745 2344 1638 C 2442 1532 2494 1472 2459 1505 C 2424 1538 2381 1577 2365 1590 C 2348 1604 2375 1576 2425 1529 C 2474 1481 2518 1444 2522 1446 C 2525 1448 2555 1420 2587 1383 C 2680 1277 2707 1248 2667 1300 C 2627 1352 2450 1617 2450 1625 C 2450 1643 2482 1618 2580 1524 L 2691 1418 L 2713 1437 C 2725 1448 2772 1489 2817 1529 C 2870 1576 2903 1599 2912 1594 C 2919 1590 2922 1591 2917 1595 C 2913 1600 2922 1616 2937 1632 C 2966 1663 2991 1671 2969 1643 C 2958 1628 2959 1628 2977 1644 C 2990 1654 2997 1666 2995 1670 C 2988 1682 3018 1703 3030 1695 C 3036 1691 3039 1692 3038 1697 C 3036 1702 3083 1752 3141 1808 C 3200 1864 3271 1944 3299 1985 C 3328 2026 3350 2060 3348 2060 C 3346 2059 3323 2039 3295 2014 z M 2770 1525 C 2740 1495 2713 1470 2709 1470 C 2700 1470 2639 1552 2643 1557 C 2645 1559 2680 1562 2720 1565 C 2761 1568 2796 1573 2799 1575 C 2801 1578 2808 1580 2814 1580 C 2820 1580 2800 1555 2770 1525 z" stroke-linecap="round" />
</g>
		<g transform="matrix(0.13 0 0 -0.13 -42.13 54.67)"  >
<path style="stroke: none; stroke-width: 1; stroke-dasharray: none; stroke-linecap: butt; stroke-dashoffset: 0; stroke-linejoin: miter; stroke-miterlimit: 4; fill: rgb(79,60,193); fill-rule: nonzero; opacity: 1;" vector-effect="non-scaling-stroke"  transform=" translate(-2290, -1875)" d="M 2250 1895 C 2250 1893 2268 1881 2290 1870 C 2312 1859 2330 1852 2330 1855 C 2330 1857 2312 1869 2290 1880 C 2268 1891 2250 1898 2250 1895 z" stroke-linecap="round" />
</g>
		<g transform="matrix(0.13 0 0 -0.13 -30.1 60.67)"  >
<path style="stroke: none; stroke-width: 1; stroke-dasharray: none; stroke-linecap: butt; stroke-dashoffset: 0; stroke-linejoin: miter; stroke-miterlimit: 4; fill: rgb(79,60,193); fill-rule: nonzero; opacity: 1;" vector-effect="non-scaling-stroke"  transform=" translate(-2380.22, -1830)" d="M 2370 1830 C 2378 1825 2390 1820 2395 1820 C 2401 1820 2398 1825 2390 1830 C 2382 1835 2371 1840 2365 1840 C 2360 1840 2362 1835 2370 1830 z" stroke-linecap="round" />
</g>
		<g transform="matrix(0.13 0 0 -0.13 27.07 128.67)"  >
<path style="stroke: none; stroke-width: 1; stroke-dasharray: none; stroke-linecap: butt; stroke-dashoffset: 0; stroke-linejoin: miter; stroke-miterlimit: 4; fill: rgb(79,60,193); fill-rule: nonzero; opacity: 1;" vector-effect="non-scaling-stroke"  transform=" translate(-2809, -1320)" d="M 3348 1548 C 3114 1297 2960 1126 2820 957 C 2784 915 2752 880 2747 880 C 2742 880 2612 1000 2458 1148 C 1963 1620 1920 1658 2165 1411 C 2297 1278 2484 1093 2581 999 L 2757 830 L 2811 902 C 2896 1016 3199 1371 3369 1555 C 3563 1765 3604 1810 3598 1810 C 3595 1810 3483 1692 3348 1548 z" stroke-linecap="round" />
</g>
		<g transform="matrix(0.13 0 0 -0.13 -43.46 80.67)"  >
<path style="stroke: none; stroke-width: 1; stroke-dasharray: none; stroke-linecap: butt; stroke-dashoffset: 0; stroke-linejoin: miter; stroke-miterlimit: 4; fill: rgb(79,60,193); fill-rule: nonzero; opacity: 1;" vector-effect="non-scaling-stroke"  transform=" translate(-2280, -1680)" d="M 2275 1680 C 2302 1653 2326 1630 2329 1630 C 2332 1630 2312 1653 2285 1680 C 2258 1708 2234 1730 2231 1730 C 2228 1730 2248 1708 2275 1680 z" stroke-linecap="round" />
</g>
		<g transform="matrix(0.13 0 0 -0.13 42.12 107)"  >
<path style="stroke: none; stroke-width: 1; stroke-dasharray: none; stroke-linecap: butt; stroke-dashoffset: 0; stroke-linejoin: miter; stroke-miterlimit: 4; fill: rgb(79,60,193); fill-rule: nonzero; opacity: 1;" vector-effect="non-scaling-stroke"  transform=" translate(-2921.84, -1482.5)" d="M 2920 1483 L 2765 1325 L 2923 1480 C 3069 1624 3085 1640 3077 1640 C 3076 1640 3005 1569 2920 1483 z" stroke-linecap="round" />
</g>
		<g transform="matrix(0.13 0 0 -0.13 158.53 104)"  >
<path style="stroke: none; stroke-width: 1; stroke-dasharray: none; stroke-linecap: butt; stroke-dashoffset: 0; stroke-linejoin: miter; stroke-miterlimit: 4; fill: rgb(79,60,193); fill-rule: nonzero; opacity: 1;" vector-effect="non-scaling-stroke"  transform=" translate(-3794.9, -1505.02)" d="M 3789 1503 C 3776 1487 3777 1486 3793 1499 C 3809 1512 3814 1520 3806 1520 C 3804 1520 3796 1512 3789 1503 z" stroke-linecap="round" />
</g>
		<g transform="matrix(0.13 0 0 -0.13 154.53 109.33)"  >
<path style="stroke: none; stroke-width: 1; stroke-dasharray: none; stroke-linecap: butt; stroke-dashoffset: 0; stroke-linejoin: miter; stroke-miterlimit: 4; fill: rgb(79,60,193); fill-rule: nonzero; opacity: 1;" vector-effect="non-scaling-stroke"  transform=" translate(-3764.9, -1465.02)" d="M 3759 1463 C 3746 1447 3747 1446 3763 1459 C 3779 1472 3784 1480 3776 1480 C 3774 1480 3766 1472 3759 1463 z" stroke-linecap="round" />
</g>
		<g transform="matrix(0.13 0 0 -0.13 150.53 114.66)"  >
<path style="stroke: none; stroke-width: 1; stroke-dasharray: none; stroke-linecap: butt; stroke-dashoffset: 0; stroke-linejoin: miter; stroke-miterlimit: 4; fill: rgb(79,60,193); fill-rule: nonzero; opacity: 1;" vector-effect="non-scaling-stroke"  transform=" translate(-3734.9, -1425.02)" d="M 3729 1423 C 3716 1407 3717 1406 3733 1419 C 3749 1432 3754 1440 3746 1440 C 3744 1440 3736 1432 3729 1423 z" stroke-linecap="round" />
</g>
		<g transform="matrix(0.13 0 0 -0.13 146.53 120)"  >
<path style="stroke: none; stroke-width: 1; stroke-dasharray: none; stroke-linecap: butt; stroke-dashoffset: 0; stroke-linejoin: miter; stroke-miterlimit: 4; fill: rgb(79,60,193); fill-rule: nonzero; opacity: 1;" vector-effect="non-scaling-stroke"  transform=" translate(-3704.9, -1385.02)" d="M 3699 1383 C 3686 1367 3687 1366 3703 1379 C 3719 1392 3724 1400 3716 1400 C 3714 1400 3706 1392 3699 1383 z" stroke-linecap="round" />
</g>
		<g transform="matrix(0.13 0 0 -0.13 139.88 128.01)"  >
<path style="stroke: none; stroke-width: 1; stroke-dasharray: none; stroke-linecap: butt; stroke-dashoffset: 0; stroke-linejoin: miter; stroke-miterlimit: 4; fill: rgb(79,60,193); fill-rule: nonzero; opacity: 1;" vector-effect="non-scaling-stroke"  transform=" translate(-3655.02, -1324.9)" d="M 3649 1323 C 3636 1307 3637 1306 3653 1319 C 3662 1326 3670 1334 3670 1336 C 3670 1344 3662 1339 3649 1323 z" stroke-linecap="round" />
</g>
		<g transform="matrix(0.13 0 0 -0.13 17.54 132.97)"  >
<path style="stroke: none; stroke-width: 1; stroke-dasharray: none; stroke-linecap: butt; stroke-dashoffset: 0; stroke-linejoin: miter; stroke-miterlimit: 4; fill: rgb(79,60,193); fill-rule: nonzero; opacity: 1;" vector-effect="non-scaling-stroke"  transform=" translate(-2737.5, -1287.7)" d="M 2734 1288 L 2715 1265 L 2738 1284 C 2750 1295 2760 1305 2760 1307 C 2760 1315 2752 1309 2734 1288 z" stroke-linecap="round" />
</g>
		<g transform="matrix(0.13 0 0 -0.13 -68.46 171.66)"  >
<path style="stroke: none; stroke-width: 1; stroke-dasharray: none; stroke-linecap: butt; stroke-dashoffset: 0; stroke-linejoin: miter; stroke-miterlimit: 4; fill: rgb(79,60,193); fill-rule: nonzero; opacity: 1;" vector-effect="non-scaling-stroke"  transform=" translate(-2092.5, -997.53)" d="M 2060 1027 C 2060 1025 2075 1011 2093 994 L 2125 965 L 2096 998 C 2068 1028 2060 1035 2060 1027 z" stroke-linecap="round" />
</g>
</g>
</g>
</svg>